inDegrees=no
num_controls=7
num_derivatives=13
num_iterations=144
num_multipliers=7
num_parameters=0
num_slacks=7
num_states=26
objective=5.468869
objective_accelerations=0.516884
objective_balance=0.016013
objective_effort=0.416424
objective_height=4.449277
objective_ligament=0.070271
solver_duration=1272.609572
status=Solve_Succeeded
success=true
DataType=double
version=3
OpenSimVersion=4.4-2022-07-23-0e9fedc
endheader
time	/jointset/ground_pelvis/pelvis_tilt/value	/jointset/ground_pelvis/pelvis_tx/value	/jointset/ground_pelvis/pelvis_ty/value	/jointset/hip_r/hip_flexion_r/value	/jointset/hip_r/hip_adduction_r/value	/jointset/hip_r/hip_rotation_r/value	/jointset/back/lumbar_extension/value	/jointset/patellofemoral_r/patellar_flexion_r/value	/jointset/knee_r/knee_flexion_r/value	/jointset/knee_r/knee_adduction_r/value	/jointset/knee_r/knee_rotation_r/value	/jointset/ankle_r/ankle_angle_r/value	/jointset/subtalar_r/subtalar_angle_r/value	/jointset/ground_pelvis/pelvis_tilt/speed	/jointset/ground_pelvis/pelvis_tx/speed	/jointset/ground_pelvis/pelvis_ty/speed	/jointset/hip_r/hip_flexion_r/speed	/jointset/hip_r/hip_adduction_r/speed	/jointset/hip_r/hip_rotation_r/speed	/jointset/back/lumbar_extension/speed	/jointset/patellofemoral_r/patellar_flexion_r/speed	/jointset/knee_r/knee_flexion_r/speed	/jointset/knee_r/knee_adduction_r/speed	/jointset/knee_r/knee_rotation_r/speed	/jointset/ankle_r/ankle_angle_r/speed	/jointset/subtalar_r/subtalar_angle_r/speed	/forceset/tau_hip_flexion_r	/forceset/tau_hip_adduction_r	/forceset/tau_hip_rotation_r	/forceset/tau_knee_flexion_r	/forceset/tau_ankle_angle_r	/forceset/tau_subtalar_angle_r	/forceset/tau_lumbar_extension	lambda_cid13_p0	lambda_cid14_p0	lambda_cid14_p1	lambda_cid14_p2	lambda_cid14_p3	lambda_cid14_p4	lambda_cid14_p5	/jointset/ground_pelvis/pelvis_tilt/accel	/jointset/ground_pelvis/pelvis_tx/accel	/jointset/ground_pelvis/pelvis_ty/accel	/jointset/hip_r/hip_flexion_r/accel	/jointset/hip_r/hip_adduction_r/accel	/jointset/hip_r/hip_rotation_r/accel	/jointset/back/lumbar_extension/accel	/jointset/patellofemoral_r/patellar_flexion_r/accel	/jointset/knee_r/knee_flexion_r/accel	/jointset/knee_r/knee_adduction_r/accel	/jointset/knee_r/knee_rotation_r/accel	/jointset/ankle_r/ankle_angle_r/accel	/jointset/subtalar_r/subtalar_angle_r/accel	gamma_cid13_p0	gamma_cid14_p0	gamma_cid14_p1	gamma_cid14_p2	gamma_cid14_p3	gamma_cid14_p4	gamma_cid14_p5
1	-0.1958945834789978	0.0006605999040251132	0.6719447200630999	1.296247226983515	-0.2348527964690384	-0.1114707508267373	-0.785389252424938	1.417759012167761	1.417759012167769	-0.1745022182605625	0.1745285780901598	0.4362706375454065	0.1829083624547098	0.06900882042065513	0.005993931689083767	0.01597927864142906	-0.1028503112336062	-0.0009884720304234504	-0.0004676607222372684	0.001425000451793961	-0.02157504229916493	-0.0215750422991652	0.007230615179943565	-0.0002918989326687401	0.01169626872047601	0.004308517470186793	-0.3071706675767972	0.02233578950577558	0.01363025580950076	-0.4393433986527147	-0.03492237464943377	0.01345241035626527	0.3418327191935977	-0.04226186940796645	-61.2217120927488	-6.890297156442747	3.819994775767326	6.888505672072334	-757.6986867602999	76.7289070665517	1.194371442475763	0.1696661363589239	1.60551436285927	-4.902210297737628	0.2620573872444802	-0.3916028923466461	0.1008073838850343	-4.660111735182029	-4.660111735181871	0.7868074879711429	-0.01711843024604895	-1.111298228440449	-0.08109851373437491	9.403964748403635e-10	-1.149855750594725e-09	1.350403614186892e-08	6.93067838452462e-09	4.090463655486374e-09	-6.605689465875676e-09	1.997895761106035e-08
1.01	-0.1951458814004081	0.0007292570553411159	0.6721846725114731	1.294974571480904	-0.2348498092913094	-0.1114924650687501	-0.7853669523887487	1.417310683504173	1.417310683504177	-0.17438778367284	0.1745245903673267	0.4363322766789932	0.1829470185474775	0.08068563098044382	0.007763933759874644	0.03201264608338322	-0.1516754048961131	0.00157370317625325	-0.003845898952572812	0.003262004609579074	-0.06809620028401618	-0.06809620028401399	0.01570506219972744	-0.0004959530507512801	0.00066065221560396	0.003413966453986436	-0.3083178606345326	0.02243907366802894	0.01369283162810161	-0.4393090243744788	-0.03530992401394191	0.01344041833364116	0.343297313265259	-0.04225556142154733	-61.40033766756505	-6.924321637110755	3.822609854136809	6.635778878318853	-758.7090112967271	76.71864260508649	1.147443086173243	0.184633509411106	1.602460470598196	-4.871849686266171	0.2514719302029237	-0.3065389901639987	0.259196604999068	-4.648945193360059	-4.648945193359809	0.8850782819014826	-0.02058534765207687	-1.095330134118766	-0.09493375112124464	4.382165077213239e-09	2.69582801533877e-09	3.581914292071234e-08	3.469527916624126e-08	4.936743369992945e-09	-1.3538957626837e-08	6.258073030944572e-08
1.02	-0.1942817897715329	0.0008164074807593034	0.672585001141413	1.293213826884515	-0.2348215654929526	-0.111547082633413	-0.7853194723763169	1.416396977788091	1.416396977788092	-0.174187141620344	0.174518854814309	0.4362844322929551	0.1829764690589711	0.09208673047794529	0.009692586509520713	0.04805451495474646	-0.2004681299889779	0.004062852095874493	-0.007048325254388289	0.006460995698318299	-0.1146504527978031	-0.1146504527977994	0.02447210813629165	-0.0006414649713445068	-0.01020043519359522	0.002467401215452458	-0.3094650536922587	0.02254235783029366	0.01375540744673219	-0.439274650096238	-0.03569747337844718	0.01342842631103928	0.3447619073369289	-0.04225678138368415	-61.58719947416917	-6.95545315041976	3.819811593804669	6.382434734898559	-759.8552786853467	76.7455393095226	1.139229230018299	0.2013962721299801	1.607214648741089	-4.895736583809212	0.2474521298333776	-0.3564405066426405	0.373204770075818	-4.66673064096917	-4.666730640969188	0.8453272713272186	-0.00540999074816812	-1.076392409305847	-0.0915013582011043	8.844969283557947e-09	1.158825906212638e-08	6.183626033888004e-08	7.156352363849315e-08	-2.462213533612579e-09	-1.824100293990607e-08	1.173467153408147e-07
1.03	-0.1933050102611209	0.0009234509744254396	0.6731457056725718	1.290965661287967	-0.2347687413901381	-0.1116329277536738	-0.7852339553424538	1.415017546874554	1.415017546874553	-0.1738975033797681	0.1745119408415061	0.436128428971464	0.1829960761616861	0.1032268349902336	0.01172394837110088	0.06407908225986887	-0.2491231635672768	0.006495857244773642	-0.01009881446896022	0.01079574738335095	-0.16124286259523	-0.1612428625952252	0.03349027885006293	-0.0007353202582490996	-0.02101311588354557	0.001434917232958408	-0.3099516841347376	0.02274471001646431	0.01381638648259923	-0.4386161750401632	-0.03659838360532729	0.01342482288125359	0.3454674469623981	-0.04228034663856703	-61.90127274410221	-6.99567954765912	3.807571611073518	6.548448485884882	-760.2183517187774	76.65652467081161	1.09505499303184	0.2051795308436847	1.598976806411696	-4.844108751792949	0.2403226507464261	-0.276061700122117	0.4866108140068179	-4.656568742747821	-4.656568742747682	0.9352728702183996	-0.01044310996484623	-1.085638826862759	-0.1119605127404138	1.331819222055543e-08	2.053218753014723e-08	8.789115337581637e-08	1.085246624341179e-07	-9.945305504749905e-09	-2.29202806728946e-08	1.722368249878264e-07
1.04	-0.192218098919347	0.001051042764241587	0.6738664356837847	1.288232200954243	-0.2346917676471729	-0.1117486194803212	-0.7851004907024802	1.413171977344319	1.413171977344316	-0.1735166412522995	0.1745042743533804	0.4358639122574668	0.1830047907056825	0.1141130967504309	0.01380224573952287	0.0800596109655671	-0.2975270774236856	0.008892780126800715	-0.01301764653383802	0.01605051691997869	-0.2078781761373922	-0.2078781761373861	0.04271688551648802	-0.0007919680372852702	-0.0319031136944212	0.0002888894717915494	-0.3104383145772139	0.02294706220264595	0.0138773655184812	-0.4379576999840856	-0.03749929383220372	0.01342121945149023	0.3461729865878698	-0.04231145822828194	-62.22358909203106	-7.032793122199742	3.789630731792746	6.711942956526069	-760.7194958658088	76.6053912991412	1.088460679600093	0.210783373498338	1.598406928856255	-4.845512639431172	0.2402356764589572	-0.3301090767038156	0.557208340394824	-4.675311389916266	-4.675311389916194	0.8870144618579934	0.002031510825535309	-1.091855833490926	-0.1142101139356869	1.724864474426154e-08	2.693757887517017e-08	1.113140921810115e-07	1.429354898489278e-07	-1.311251189775084e-08	-2.762210803817307e-08	2.197923603960367e-07
